<svg id="java-logo-svgrepo-com" xmlns="http://www.w3.org/2000/svg" width="120.023" height="162.79" viewBox="0 0 120.023 162.79">
  <g id="Group_23" data-name="Group 23">
    <path id="Path_185" data-name="Path 185" d="M201.971,87.412s-9.075-17.487-8.74-30.264c.245-9.131,20.833-18.157,28.916-31.263S221.141,0,221.141,0a30.067,30.067,0,0,1-3.361,19.156c-5.379,9.753-25.234,15.474-32.954,32.284S201.971,87.412,201.971,87.412Z" transform="translate(-145.344)" fill="#fff"/>
    <path id="Path_186" data-name="Path 186" d="M281.175,105.869s-30.928,11.772-30.928,25.213,8.4,17.822,9.753,22.188-2.354,11.772-2.354,11.772,12.1-8.4,10.074-18.157-11.43-12.785-6.043-22.524C265.274,117.83,281.175,105.869,281.175,105.869Z" transform="translate(-190.581 -71.581)" fill="#fff"/>
    <path id="Path_187" data-name="Path 187" d="M146.572,291.86c28.581-1.02,39-10.039,39-10.039-18.485,5.037-67.578,4.709-67.92,1.013s15.125-6.728,15.125-6.728-24.2,0-26.219,6.05S118.012,292.859,146.572,291.86Z" transform="translate(-93.299 -186.682)" fill="#fff"/>
    <path id="Path_188" data-name="Path 188" d="M358.187,301.349s27.973-5.966,25.206-21.161c-3.353-18.5-22.859-8.076-22.859-8.076s13.8,0,15.132,8.4S358.187,301.349,358.187,301.349Z" transform="translate(-263.562 -182.003)" fill="#fff"/>
    <path id="Path_189" data-name="Path 189" d="M198.335,337.971A135.66,135.66,0,0,1,180.841,341c-14,1.572-30.928.328-32.276-2.026-1.327-2.354,2.354-3.7,2.354-3.7-16.816,4.038-7.615,11.087,12.093,12.443,16.893,1.153,42.036-5.044,42.036-5.044Z" transform="translate(-117.494 -226.687)" fill="#fff"/>
    <path id="Path_190" data-name="Path 190" d="M164.825,388.943s-7.629.217-8.076,4.255c-.44,4.01,4.695,7.615,23.53,8.733s32.06-5.149,32.06-5.149l-8.516-5.17s-5.386,1.132-13.679,2.25-25.318-.9-25.989-2.459A1.971,1.971,0,0,1,164.825,388.943Z" transform="translate(-127.348 -262.974)" fill="#fff"/>
    <path id="Path_191" data-name="Path 191" d="M176.779,431.427c2.913-3.144-.9-5.61-.9-5.61a2.415,2.415,0,0,1-.433,3.361c-1.8,1.788-18.164,6.267-44.391,7.615s-54.688-2.466-55.59-5.827c-.873-3.361,14.58-6.043,14.58-6.043-1.788.223-23.306.671-23.991,6.5s9.411,10.528,49.77,10.528C156.162,441.948,173.879,434.55,176.779,431.427Z" transform="translate(-66.023 -287.301)" fill="#fff"/>
    <path id="Path_192" data-name="Path 192" d="M210.324,465.195c-17.71,3.577-71.49,1.32-71.49,1.32a207,207,0,0,0,74.85,1.355c19.072-3.326,20.183-12.554,20.183-12.554S228.034,461.6,210.324,465.195Z" transform="translate(-115.252 -307.851)" fill="#fff"/>
  </g>
</svg>
