<svg xmlns="http://www.w3.org/2000/svg" width="114.542" height="129.193" viewBox="0 0 114.542 129.193">
  <path id="Font_Awesome_5_brands_node-js" d="M57.945,133.243a10.042,10.042,0,0,1-4.973-1.333l-15.817-9.357c-2.359-1.333-1.2-1.795-.436-2.051a31.158,31.158,0,0,0,7.152-3.256,1.157,1.157,0,0,1,1.179.1l12.151,7.2a1.484,1.484,0,0,0,1.461,0l47.35-27.328a1.518,1.518,0,0,0,.718-1.282V41.286a1.527,1.527,0,0,0-.743-1.307l-47.324-27.3a1.484,1.484,0,0,0-1.461,0L9.9,40a1.5,1.5,0,0,0-.743,1.307v54.63A1.415,1.415,0,0,0,9.9,97.2l12.972,7.486c7.05,3.512,11.357-.615,11.357-4.794V45.952a1.357,1.357,0,0,1,1.384-1.359h6A1.373,1.373,0,0,1,43,45.952V99.916c0,9.383-5.127,14.766-14.023,14.766-2.743,0-4.9,0-10.9-2.974L5.673,104.556A9.969,9.969,0,0,1,.7,95.917V41.286a10,10,0,0,1,4.973-8.639l47.3-27.328a10.38,10.38,0,0,1,9.947,0l47.35,27.354a9.969,9.969,0,0,1,4.973,8.639v54.63a10.031,10.031,0,0,1-4.973,8.639L62.919,131.91A9.97,9.97,0,0,1,57.945,133.243ZM96.169,79.382c0-10.229-6.922-12.946-21.457-14.869-14.715-1.948-16.2-2.948-16.2-6.383,0-2.846,1.256-6.64,12.152-6.64,9.716,0,13.305,2.1,14.792,8.665a1.372,1.372,0,0,0,1.333,1.077h6.153a1.338,1.338,0,0,0,1-.436,1.427,1.427,0,0,0,.359-1.051c-.949-11.306-8.46-16.561-23.636-16.561-13.51,0-21.56,5.691-21.56,15.253,0,10.357,8.024,13.228,20.97,14.51,15.51,1.513,16.715,3.794,16.715,6.845,0,5.281-4.256,7.537-14.228,7.537-12.536,0-15.279-3.153-16.2-9.383A1.357,1.357,0,0,0,55,76.792H48.87a1.351,1.351,0,0,0-1.359,1.359c0,7.973,4.332,17.484,25.072,17.484,14.971-.026,23.585-5.948,23.585-16.253Z" transform="translate(-0.7 -4.05)" fill="#fff"/>
</svg>
