<svg id="visual" width="900" height="600" xmlns="http://www.w3.org/2000/svg" xmlns:xlink="http://www.w3.org/1999/xlink" version="1.1"><path d="M0 172L15 178.8C30 185.7 60 199.3 90 205.8C120 212.3 150 211.7 180 202.3C210 193 240 175 270 174C300 173 330 189 360 196.2C390 203.3 420 201.7 450 199.7C480 197.7 510 195.3 540 190.2C570 185 600 177 630 174.7C660 172.3 690 175.7 720 177.3C750 179 780 179 810 184.8C840 190.7 870 202.3 885 208.2L900 214L900 0L885 0C870 0 840 0 810 0C780 0 750 0 720 0C690 0 660 0 630 0C600 0 570 0 540 0C510 0 480 0 450 0C420 0 390 0 360 0C330 0 300 0 270 0C240 0 210 0 180 0C150 0 120 0 90 0C60 0 30 0 15 0L0 0Z" fill="#1ab0c3"></path><path d="M0 130L15 135.5C30 141 60 152 90 156.5C120 161 150 159 180 159.3C210 159.7 240 162.3 270 165.5C300 168.7 330 172.3 360 169.3C390 166.3 420 156.7 450 152.5C480 148.3 510 149.7 540 152C570 154.3 600 157.7 630 158C660 158.3 690 155.7 720 157.3C750 159 780 165 810 167.8C840 170.7 870 170.3 885 170.2L900 170L900 0L885 0C870 0 840 0 810 0C780 0 750 0 720 0C690 0 660 0 630 0C600 0 570 0 540 0C510 0 480 0 450 0C420 0 390 0 360 0C330 0 300 0 270 0C240 0 210 0 180 0C150 0 120 0 90 0C60 0 30 0 15 0L0 0Z" fill="#1e8c9a"></path><path d="M0 125L15 124.3C30 123.7 60 122.3 90 118.7C120 115 150 109 180 109.3C210 109.7 240 116.3 270 118.8C300 121.3 330 119.7 360 123.2C390 126.7 420 135.3 450 134C480 132.7 510 121.3 540 116C570 110.7 600 111.3 630 113C660 114.7 690 117.3 720 114C750 110.7 780 101.3 810 101.2C840 101 870 110 885 114.5L900 119L900 0L885 0C870 0 840 0 810 0C780 0 750 0 720 0C690 0 660 0 630 0C600 0 570 0 540 0C510 0 480 0 450 0C420 0 390 0 360 0C330 0 300 0 270 0C240 0 210 0 180 0C150 0 120 0 90 0C60 0 30 0 15 0L0 0Z" fill="#1d6a73"></path><path d="M0 96L15 97.3C30 98.7 60 101.3 90 104.7C120 108 150 112 180 109.3C210 106.7 240 97.3 270 96.8C300 96.3 330 104.7 360 107C390 109.3 420 105.7 450 103.7C480 101.7 510 101.3 540 96.3C570 91.3 600 81.7 630 78.7C660 75.7 690 79.3 720 82.5C750 85.7 780 88.3 810 88.3C840 88.3 870 85.7 885 84.3L900 83L900 0L885 0C870 0 840 0 810 0C780 0 750 0 720 0C690 0 660 0 630 0C600 0 570 0 540 0C510 0 480 0 450 0C420 0 390 0 360 0C330 0 300 0 270 0C240 0 210 0 180 0C150 0 120 0 90 0C60 0 30 0 15 0L0 0Z" fill="#19494f"></path><path d="M0 85L15 83.7C30 82.3 60 79.7 90 76.8C120 74 150 71 180 66.2C210 61.3 240 54.7 270 50.7C300 46.7 330 45.3 360 46.5C390 47.7 420 51.3 450 55.7C480 60 510 65 540 66.8C570 68.7 600 67.3 630 65C660 62.7 690 59.3 720 57.7C750 56 780 56 810 57.7C840 59.3 870 62.7 885 64.3L900 66L900 0L885 0C870 0 840 0 810 0C780 0 750 0 720 0C690 0 660 0 630 0C600 0 570 0 540 0C510 0 480 0 450 0C420 0 390 0 360 0C330 0 300 0 270 0C240 0 210 0 180 0C150 0 120 0 90 0C60 0 30 0 15 0L0 0Z" fill="#122b2e"></path><path d="M0 38L15 35.7C30 33.3 60 28.7 90 25.3C120 22 150 20 180 19.5C210 19 240 20 270 22.3C300 24.7 330 28.3 360 28C390 27.7 420 23.3 450 26.8C480 30.3 510 41.7 540 45.8C570 50 600 47 630 44.8C660 42.7 690 41.3 720 41.7C750 42 780 44 810 44C840 44 870 42 885 41L900 40L900 0L885 0C870 0 840 0 810 0C780 0 750 0 720 0C690 0 660 0 630 0C600 0 570 0 540 0C510 0 480 0 450 0C420 0 390 0 360 0C330 0 300 0 270 0C240 0 210 0 180 0C150 0 120 0 90 0C60 0 30 0 15 0L0 0Z" fill="#020e0f"></path></svg>